Coordinates
version=1
nRows=24
nColumns=33
inDegrees=yes

Units are S.I. units (second, meters, Newtons, ...)
Angles are in degrees.

endheader
time	ground_thorax_rot_x	ground_thorax_rot_y	ground_thorax_rot_z	ground_thorax_tx	ground_thorax_ty	ground_thorax_tz	clav_prot_r	clav_elev_r	scapula_abduction_r	scapula_elevation_r	scapula_upward_rot_r	scapula_winging_r	shoulder_elv_r	plane_of_elev_r	axial_rot_r	elbow_flexion_r	pro_sup_r	wrist_flex_r	wrist_dev_r	clav_prot_l	clav_elev_l	scapula_abduction_l	scapula_elevation_l	scapula_upward_rot_l	scapula_winging_l	shoulder_elv_l	plane_of_elev_l	axial_rot_l	elbow_flexion_l	pro_sup_l	wrist_flex_l	wrist_dev_l	
0.4500	2.621511	-6.241022	9.564977	-0.115447	1.041754	0.007557	9.806497	-4.321325	26.053871	-4.025924	16.241896	-9.660072	48.546456	30.836575	-12.076567	52.326160	39.296858	9.053401	24.037922	9.338007	-9.395663	-14.748861	0.552548	-7.054562	2.001341	50.088535	36.653719	0.486204	66.127318	15.736228	-6.702422	-8.493799	
0.4600	2.553601	-6.188224	9.666269	-0.115546	1.042011	0.007457	9.595980	-4.130416	26.024765	-4.034776	16.759839	-9.714390	48.792614	31.215559	-12.608698	53.062066	39.692499	9.125703	23.821160	9.525227	-9.140915	-15.178166	0.455320	-6.741564	2.284410	50.398033	37.250322	1.151216	66.598838	15.996544	-7.027065	-8.760127	
0.4700	2.506032	-6.135261	9.758403	-0.115648	1.042258	0.007365	9.389796	-3.895067	26.006161	-4.006333	17.283713	-9.789292	49.028818	31.597075	-13.153508	53.813479	40.112362	9.201226	23.570828	9.713609	-8.907617	-15.612379	0.379431	-6.426249	2.562537	50.743555	37.825653	1.853548	67.079878	16.246442	-7.335858	-9.024775	
0.4800	2.477631	-6.091440	9.827414	-0.115740	1.042521	0.007291	9.184607	-3.653365	25.997916	-3.974428	17.817692	-9.870288	49.272855	31.979024	-13.686858	54.573564	40.508432	9.273716	23.298695	9.881342	-8.712905	-16.022816	0.349404	-6.088312	2.819002	51.129763	38.362029	2.572964	67.571056	16.452789	-7.610290	-9.265596	
0.4900	2.445961	-6.026473	9.878458	-0.115881	1.042742	0.007233	8.984273	-3.367078	25.998081	-3.904115	18.354088	-9.970217	49.511780	32.351865	-14.274842	55.357308	40.974798	9.326501	22.972840	10.115859	-8.517446	-16.550806	0.320329	-5.746636	3.126294	51.624504	38.874257	3.383640	68.060859	16.666570	-7.887499	-9.515077	
0.5000	2.416443	-5.957642	9.913373	-0.116036	1.042963	0.007202	8.787418	-3.080411	26.004731	-3.831620	18.888407	-10.071947	49.762000	32.711265	-14.869866	56.157931	41.448344	9.364494	22.616085	10.375608	-8.347533	-17.131357	0.321983	-5.388422	3.448923	52.209557	39.333577	4.246768	68.560471	16.851417	-8.140171	-9.747478	
0.5100	2.382487	-5.872273	9.933162	-0.116240	1.043163	0.007205	8.597539	-2.777832	26.019376	-3.742407	19.416146	-10.181843	50.024651	33.056247	-15.491804	56.979142	41.979776	9.389564	22.215592	10.704608	-8.200833	-17.835092	0.346979	-5.025457	3.818151	52.943449	39.723828	5.204672	69.074771	17.033986	-8.369745	-9.972247	
0.5200	2.348815	-5.790801	9.939863	-0.116434	1.043378	0.007233	8.409326	-2.506663	26.036689	-3.676337	19.936536	-10.280826	50.310498	33.385249	-16.096340	57.810453	42.490809	9.413415	21.811758	11.033113	-8.081925	-18.547186	0.404202	-4.646693	4.183266	53.741415	40.059639	6.182537	69.608051	17.193984	-8.564171	-10.173479	
0.5300	2.313240	-5.700550	9.954154	-0.116646	1.043574	0.007268	8.229012	-2.236930	26.058892	-3.605161	20.440955	-10.380895	50.596091	33.692772	-16.716570	58.657164	43.017133	9.430745	21.394626	11.384106	-7.960566	-19.294121	0.453188	-4.281431	4.563753	54.573273	40.376022	7.189274	70.153387	17.366367	-8.749186	-10.377479	
0.5400	2.287165	-5.630930	9.980147	-0.116801	1.043803	0.007291	8.050647	-2.024583	26.082338	-3.577111	20.931881	-10.460330	50.889223	33.975129	-17.290583	59.507273	43.434266	9.447776	21.014980	11.649551	-7.837462	-19.895921	0.500802	-3.916140	4.882214	55.289212	40.707242	8.103762	70.714368	17.510113	-8.915604	-10.566762	
0.5500	2.261169	-5.566627	10.021010	-0.116948	1.044003	0.007288	7.886741	-1.818234	26.123815	-3.549175	21.410102	-10.543260	51.173865	34.221671	-17.862698	60.378953	43.780579	9.438290	20.640629	11.865740	-7.667333	-20.403391	0.497519	-3.572327	5.175337	55.893999	41.091849	8.956872	71.278551	17.657416	-9.085330	-10.773520	
0.5600	2.239447	-5.514364	10.074147	-0.117061	1.044190	0.007251	7.732939	-1.630361	26.180558	-3.533497	21.880718	-10.624350	51.450137	34.433302	-18.412385	61.267219	44.015907	9.404715	20.288597	11.991473	-7.447461	-20.748528	0.443932	-3.242646	5.414285	56.321280	41.550505	9.694130	71.845495	17.792240	-9.264269	-10.998272	
0.5700	2.214079	-5.453136	10.141006	-0.117199	1.044322	0.007187	7.596486	-1.413372	26.257926	-3.488760	22.340104	-10.722794	51.704005	34.607417	-18.982538	62.188382	44.222685	9.337698	19.921753	12.091810	-7.163002	-21.036723	0.321011	-2.939826	5.648261	56.633078	42.078482	10.380657	72.406945	17.944589	-9.472424	-11.268791	
0.5800	2.194536	-5.392054	10.214277	-0.117332	1.044450	0.007106	7.466912	-1.207583	26.342214	-3.449157	22.788766	-10.819432	51.951194	34.752887	-19.535482	63.130218	44.384641	9.261382	19.563433	12.143425	-6.855651	-21.238596	0.174926	-2.643091	5.850900	56.833966	42.633678	10.988138	72.975576	18.089657	-9.694574	-11.566831	
0.5900	2.159591	-5.318592	10.285286	-0.117501	1.044505	0.007006	7.358202	-0.964595	26.452212	-3.374070	23.226355	-10.937400	52.187842	34.858159	-20.121025	64.119946	44.589242	9.156749	19.167988	12.210366	-6.488103	-21.464080	-0.024398	-2.346622	6.082185	57.009107	43.211789	11.591633	73.534716	18.270019	-9.942540	-11.933150	
0.6000	2.122117	-5.246362	10.354329	-0.117670	1.044549	0.006899	7.259447	-0.731276	26.572010	-3.302301	23.650558	-11.054819	52.420205	34.937953	-20.697485	65.134358	44.806860	9.042897	18.762726	12.263914	-6.111334	-21.673532	-0.224710	-2.034124	6.308410	57.155215	43.767961	12.160100	74.097251	18.454194	-10.197679	-12.338002	
0.6100	2.079570	-5.179683	10.420590	-0.117830	1.044577	0.006789	7.171259	-0.504721	26.700394	-3.230801	24.058962	-11.172229	52.641622	34.997315	-21.262374	66.179309	45.038215	8.905479	18.342255	12.307531	-5.725518	-21.875092	-0.423780	-1.700713	6.533309	57.288234	44.294296	12.703437	74.662103	18.643265	-10.459362	-12.778749	
0.6200	2.039493	-5.119451	10.481514	-0.117976	1.044617	0.006686	7.088679	-0.294470	26.832211	-3.168708	24.455014	-11.284170	52.852567	35.042762	-21.802155	67.244084	45.279891	8.736257	17.905388	12.341446	-5.360770	-22.071609	-0.594417	-1.345295	6.748777	57.426278	44.761491	13.220129	75.244501	18.825938	-10.718197	-13.240739	
0.6300	1.993912	-5.059423	10.539574	-0.118128	1.044619	0.006586	7.018868	-0.067905	26.974153	-3.087905	24.835966	-11.404669	53.044973	35.077521	-22.327890	68.345219	45.542778	8.466649	17.428090	12.390869	-4.986035	-22.298900	-0.770112	-0.981661	6.980687	57.589072	45.193575	13.741855	75.835001	19.023481	-10.983600	-13.735308	
0.6400	1.960940	-5.002497	10.602023	-0.118278	1.044655	0.006502	6.950799	0.130086	27.105800	-3.023769	25.193830	-11.511609	53.230670	35.116374	-22.793274	69.452961	45.805142	8.101764	16.912710	12.439029	-4.657751	-22.525283	-0.907068	-0.623742	7.196746	57.773190	45.558211	14.244407	76.456561	19.206749	-11.236104	-14.220066	
0.6500	1.943273	-4.946497	10.665965	-0.118416	1.044709	0.006440	6.880952	0.302964	27.221580	-2.973958	25.530080	-11.604056	53.417521	35.191967	-23.153351	70.582210	46.000725	7.393096	16.364652	12.485528	-4.368433	-22.747178	-1.013936	-0.276617	7.397064	57.981746	45.865195	14.733987	77.111145	19.380011	-11.478618	-14.695966	
0.6600	1.928739	-4.889129	10.730051	-0.118557	1.044788	0.006379	6.821104	0.434793	27.332699	-2.947902	25.830523	-11.681361	53.625210	35.268571	-23.417858	71.717510	46.272916	6.504052	15.632504	12.537066	-4.112120	-22.972839	-1.098618	0.053395	7.587362	58.217551	46.123566	15.204122	77.794724	19.552712	-11.713539	-15.172785	
0.6700	1.912733	-4.831669	10.796785	-0.118694	1.044868	0.006310	6.771506	0.541060	27.434054	-2.931397	26.090421	-11.747360	53.845518	35.338964	-23.601976	72.862168	46.640436	5.500241	14.714331	12.591579	-3.865148	-23.193968	-1.185223	0.359304	7.771187	58.467085	46.364006	15.656043	78.495955	19.732939	-11.948660	-15.651871	
0.6800	1.895838	-4.777658	10.865425	-0.118816	1.044994	0.006226	6.725664	0.600364	27.512653	-2.940947	26.304597	-11.790740	54.074996	35.369958	-23.747310	73.988452	47.179686	4.738846	13.601626	12.632239	-3.652669	-23.380400	-1.254464	0.635447	7.927719	58.718893	46.584546	16.059769	79.224147	19.902895	-12.173968	-16.102902	
